<svg data-v-fde0c5aa="" xmlns="http://www.w3.org/2000/svg" viewBox="0 0 300 300" class="iconAbove"><!----><defs data-v-fde0c5aa=""><!----></defs><rect data-v-fde0c5aa="" fill="transparent" x="0" y="0" width="300px" height="300px" class="logo-background-square"></rect><defs data-v-fde0c5aa=""><!----></defs><g data-v-fde0c5aa="" id="9438bfaf-7616-4df9-bf8e-88bd2c36e146" fill="#000000" transform="matrix(1.6913869238571346,0,0,1.6913869238571346,25.97059579282469,184.49765876431405)"><path d="M1.19 15.58L1.19 15.58Q1.44 15.13 1.61 14.46Q1.78 13.78 1.88 12.97Q1.99 12.17 2.04 11.29Q2.10 10.42 2.13 9.57Q2.16 8.72 2.16 7.97Q2.16 7.21 2.16 6.65L2.16 6.65Q2.16 5.00 2.08 3.81Q2.00 2.62 1.90 1.82L1.90 1.82Q1.79 0.90 1.65 0.28L1.65 0.28L0.77 0.15L0.77 0.01Q1.02 0.06 1.32 0.08L1.32 0.08Q1.57 0.11 1.90 0.13Q2.23 0.15 2.62 0.15L2.62 0.15Q3.15 0.15 3.52 0.13Q3.89 0.11 4.13 0.08L4.13 0.08Q4.41 0.06 4.59 0.01L4.59 0.01L4.59 0.15L4.07 0.34Q3.93 1.04 3.84 2.02L3.84 2.02Q3.74 2.86 3.67 4.06Q3.60 5.26 3.60 6.85L3.60 6.85Q3.60 7.22 3.59 7.80Q3.58 8.37 3.57 9.04Q3.56 9.70 3.55 10.42Q3.54 11.13 3.54 11.78Q3.54 12.43 3.56 12.98Q3.57 13.54 3.60 13.87L3.60 13.87Q3.32 13.96 2.94 14.14Q2.56 14.32 2.18 14.81L2.18 14.81Q1.85 15.18 1.46 15.61Q1.06 16.04 0.58 16.41Q0.10 16.77-0.50 17.02Q-1.09 17.26-1.83 17.26L-1.83 17.26Q-2.16 17.26-2.46 17.16Q-2.76 17.05-3.00 16.93L-3.00 16.93Q-3.28 16.77-3.53 16.59L-3.53 16.59L-3.44 16.48Q-3.21 16.66-2.95 16.80L-2.95 16.80Q-2.73 16.91-2.47 17.01Q-2.21 17.11-1.93 17.11L-1.93 17.11Q-1.50 17.11-1.04 17.01Q-0.57 16.91-0.15 16.72Q0.27 16.52 0.62 16.23Q0.97 15.95 1.19 15.58ZM12.17 9.52L12.17 9.52Q12.28 9.79 12.49 10.30Q12.70 10.82 12.93 11.35Q13.16 11.89 13.38 12.29Q13.61 12.70 13.76 12.73L13.76 12.73Q13.34 12.96 12.89 13.30Q12.43 13.64 12.10 14L12.10 14Q12.03 13.69 11.84 13.14Q11.66 12.59 11.35 11.93L11.35 11.93Q11.09 12.19 10.68 12.55Q10.28 12.91 9.81 13.23Q9.35 13.55 8.86 13.78Q8.36 14 7.91 14L7.91 14Q7.59 14 7.25 13.91Q6.90 13.82 6.62 13.64Q6.34 13.47 6.17 13.22Q5.99 12.96 5.99 12.64L5.99 12.64Q5.99 12.25 6.40 11.80Q6.80 11.35 7.41 10.91Q8.01 10.47 8.71 10.05Q9.41 9.63 10.00 9.27L10.00 9.27Q9.56 8.72 9.18 8.48Q8.79 8.23 8.33 8.23L8.33 8.23Q8.13 8.23 7.82 8.34Q7.50 8.46 7.21 8.60L7.21 8.60Q6.85 8.75 6.48 8.95L6.48 8.95Q7.27 8.41 7.99 7.98L7.99 7.98Q8.30 7.80 8.62 7.63Q8.95 7.46 9.25 7.32Q9.55 7.18 9.81 7.10Q10.07 7.01 10.25 7.01L10.25 7.01Q10.60 7.01 10.90 7.31Q11.20 7.62 11.45 8.03Q11.69 8.44 11.87 8.86Q12.04 9.28 12.17 9.52ZM9.42 12.64L9.42 12.64Q9.76 12.64 10.07 12.54Q10.37 12.45 10.61 12.26Q10.84 12.08 10.98 11.83Q11.12 11.58 11.12 11.28L11.12 11.28Q11.00 11.10 10.88 10.88Q10.75 10.67 10.64 10.47L10.64 10.47Q10.53 10.22 10.41 9.99Q10.29 9.76 10.16 9.60L10.16 9.60Q9.86 9.72 9.41 9.92Q8.97 10.12 8.57 10.39Q8.16 10.67 7.88 10.99Q7.59 11.31 7.59 11.66L7.59 11.66Q7.59 11.86 7.74 12.03Q7.88 12.21 8.13 12.34Q8.37 12.47 8.71 12.56Q9.04 12.64 9.42 12.64ZM24.39 7L24.39 7Q24.99 7 25.49 7.25Q25.98 7.49 26.34 7.91Q26.70 8.33 26.89 8.88Q27.09 9.42 27.09 10.02L27.09 10.02Q27.09 10.99 26.77 11.72Q26.45 12.46 26.05 12.96L26.05 12.96Q25.59 13.55 25.03 14L25.03 14Q25.26 13.65 25.42 13.23L25.42 13.23Q25.58 12.87 25.70 12.39Q25.82 11.91 25.82 11.38L25.82 11.38Q25.82 10.75 25.57 10.16Q25.33 9.58 24.91 9.12Q24.49 8.67 23.94 8.39Q23.39 8.12 22.79 8.12L22.79 8.12Q22.55 8.12 22.33 8.18Q22.11 8.23 21.92 8.36L21.92 8.36Q22.41 9.09 22.41 10.02L22.41 10.02Q22.41 10.99 22.09 11.72Q21.77 12.46 21.38 12.96L21.38 12.96Q20.92 13.55 20.34 14L20.34 14Q20.57 13.65 20.73 13.23L20.73 13.23Q20.89 12.87 21.01 12.39Q21.14 11.91 21.14 11.38L21.14 11.38Q21.14 10.75 20.89 10.16Q20.65 9.58 20.23 9.12Q19.81 8.67 19.26 8.39Q18.72 8.12 18.12 8.12L18.12 8.12Q17.82 8.12 17.54 8.20Q17.26 8.27 17.08 8.51L17.08 8.51Q17.08 8.78 17.06 9.27Q17.04 9.76 17.04 10.39Q17.04 11.02 17.07 11.77Q17.11 12.52 17.23 13.29L17.23 13.29Q17.02 13.31 16.79 13.38Q16.55 13.45 16.31 13.55Q16.07 13.65 15.85 13.76Q15.64 13.87 15.48 14L15.48 14Q15.50 13.72 15.53 13.20Q15.57 12.68 15.60 12.07Q15.62 11.45 15.62 10.79Q15.62 10.14 15.57 9.59Q15.51 9.04 15.40 8.66Q15.29 8.27 15.09 8.19L15.09 8.19Q14.85 8.09 14.66 8.09L14.66 8.09Q14.56 8.09 14.46 8.12L14.46 8.12Q14.94 7.81 15.36 7.56L15.36 7.56Q15.72 7.35 16.07 7.17Q16.42 7 16.60 7L16.60 7Q16.79 7 16.88 7.03Q16.98 7.06 17.02 7.17Q17.07 7.28 17.07 7.50Q17.08 7.73 17.08 8.12L17.08 8.12Q17.68 7.63 18.36 7.31Q19.04 7 19.71 7L19.71 7Q20.37 7 20.90 7.31Q21.43 7.63 21.85 8.12L21.85 8.12Q22.39 7.63 23.05 7.31Q23.72 7 24.39 7ZM35.90 10.01L35.90 10.01Q35.90 11.00 35.57 11.75Q35.24 12.50 34.85 13.01L34.85 13.01Q34.38 13.59 33.80 14.01L33.80 14.01Q34.02 13.66 34.20 13.24L34.20 13.24Q34.36 12.88 34.48 12.42Q34.61 11.96 34.61 11.44L34.61 11.44Q34.61 10.81 34.36 10.22Q34.10 9.63 33.68 9.18Q33.26 8.72 32.71 8.44Q32.16 8.16 31.56 8.16L31.56 8.16Q31.26 8.16 30.98 8.23Q30.70 8.30 30.52 8.48L30.52 8.48Q30.52 8.78 30.50 9.27Q30.48 9.77 30.48 10.42Q30.48 11.06 30.51 11.82Q30.55 12.57 30.67 13.38L30.67 13.38Q30.18 13.38 29.70 13.58Q29.22 13.78 28.92 14.01L28.92 14.01Q28.94 13.75 28.97 13.24Q28.99 12.73 29.01 12.10Q29.02 11.48 29.01 10.82Q29.01 10.16 28.95 9.61Q28.90 9.06 28.79 8.68Q28.69 8.30 28.50 8.25L28.50 8.25Q28.27 8.15 28.03 8.15L28.03 8.15Q27.90 8.15 27.79 8.16L27.79 8.16Q28.27 7.85 28.70 7.60L28.70 7.60Q29.06 7.39 29.44 7.22Q29.82 7.04 30.03 7.04L30.03 7.04Q30.21 7.04 30.31 7.07Q30.41 7.10 30.46 7.21Q30.51 7.32 30.51 7.55Q30.52 7.77 30.52 8.16L30.52 8.16Q31.12 7.62 31.80 7.33Q32.48 7.04 33.08 7.04L33.08 7.04Q33.71 7.04 34.23 7.29Q34.75 7.55 35.12 7.96Q35.49 8.37 35.69 8.90Q35.90 9.44 35.90 10.01ZM39.55 5.24L39.55 5.24Q39.37 5.38 39.19 5.53L39.19 5.53Q39.03 5.67 38.84 5.85Q38.65 6.03 38.50 6.23L38.50 6.23Q38.35 5.98 38.18 5.80Q38.01 5.61 37.86 5.49L37.86 5.49Q37.69 5.33 37.52 5.24L37.52 5.24Q37.70 5.10 37.87 4.94L37.87 4.94Q38.02 4.80 38.19 4.62Q38.36 4.44 38.50 4.23L38.50 4.23Q38.65 4.47 38.84 4.65Q39.02 4.84 39.17 4.97L39.17 4.97Q39.35 5.12 39.55 5.24ZM37.30 8.12L37.30 8.12Q37.63 7.98 37.93 7.88Q38.23 7.77 38.51 7.65Q38.78 7.53 39.04 7.38Q39.30 7.24 39.55 7.01L39.55 7.01Q39.66 7.39 39.65 7.93Q39.63 8.47 39.59 9.06Q39.54 9.66 39.52 10.26Q39.51 10.86 39.63 11.35Q39.75 11.84 40.05 12.17Q40.35 12.50 40.95 12.56L40.95 12.56Q40.35 12.95 39.92 13.30Q39.49 13.65 39.07 14.01L39.07 14.01Q38.95 13.96 38.79 13.89Q38.64 13.82 38.50 13.69Q38.36 13.55 38.26 13.35Q38.15 13.15 38.14 12.82L38.14 12.82Q38.15 11.87 38.18 11.01Q38.21 10.15 38.15 9.50Q38.09 8.85 37.91 8.48Q37.72 8.11 37.30 8.12ZM48.52 9.52L48.52 9.52Q48.64 9.79 48.85 10.30Q49.06 10.82 49.29 11.35Q49.52 11.89 49.74 12.29Q49.97 12.70 50.12 12.73L50.12 12.73Q49.70 12.96 49.25 13.30Q48.79 13.64 48.45 14L48.45 14Q48.38 13.69 48.20 13.14Q48.02 12.59 47.71 11.93L47.71 11.93Q47.45 12.19 47.04 12.55Q46.63 12.91 46.17 13.23Q45.71 13.55 45.21 13.78Q44.72 14 44.27 14L44.27 14Q43.95 14 43.60 13.91Q43.26 13.82 42.98 13.64Q42.70 13.47 42.52 13.22Q42.35 12.96 42.35 12.64L42.35 12.64Q42.35 12.25 42.76 11.80Q43.16 11.35 43.76 10.91Q44.37 10.47 45.07 10.05Q45.77 9.63 46.35 9.27L46.35 9.27Q45.92 8.72 45.54 8.48Q45.15 8.23 44.69 8.23L44.69 8.23Q44.49 8.23 44.18 8.34Q43.86 8.46 43.57 8.60L43.57 8.60Q43.20 8.75 42.84 8.95L42.84 8.95Q43.62 8.41 44.35 7.98L44.35 7.98Q44.66 7.80 44.98 7.63Q45.30 7.46 45.61 7.32Q45.91 7.18 46.16 7.10Q46.42 7.01 46.61 7.01L46.61 7.01Q46.96 7.01 47.26 7.31Q47.56 7.62 47.80 8.03Q48.05 8.44 48.22 8.86Q48.40 9.28 48.52 9.52ZM45.78 12.64L45.78 12.64Q46.12 12.64 46.42 12.54Q46.73 12.45 46.96 12.26Q47.19 12.08 47.33 11.83Q47.47 11.58 47.47 11.28L47.47 11.28Q47.36 11.10 47.24 10.88Q47.11 10.67 47.00 10.47L47.00 10.47Q46.89 10.22 46.77 9.99Q46.65 9.76 46.52 9.60L46.52 9.60Q46.21 9.72 45.77 9.92Q45.33 10.12 44.93 10.39Q44.52 10.67 44.23 10.99Q43.95 11.31 43.95 11.66L43.95 11.66Q43.95 11.86 44.09 12.03Q44.24 12.21 44.48 12.34Q44.73 12.47 45.07 12.56Q45.40 12.64 45.78 12.64ZM52.78-0.14L52.78-0.14Q52.88 0.62 52.53 1.55L52.53 1.55Q52.14 2.58 51.52 2.91L51.52 2.91Q51.76 2.51 51.84 1.83Q51.93 1.15 51.80 0.67L51.80 0.67Q52.07 0.60 52.78-0.14ZM56.85 10.86L56.85 10.86Q56.59 10.86 56.20 10.81Q55.82 10.75 55.46 10.58Q55.10 10.40 54.85 10.08Q54.60 9.76 54.60 9.23L54.60 9.23Q54.60 8.81 54.82 8.48Q55.03 8.15 55.37 7.90Q55.71 7.64 56.13 7.48Q56.55 7.31 56.94 7.20Q57.33 7.08 57.66 7.04Q57.99 6.99 58.16 6.99L58.16 6.99Q58.28 6.99 58.47 6.99Q58.66 7 58.85 7.02Q59.04 7.04 59.21 7.06Q59.39 7.08 59.47 7.13L59.47 7.13Q59.42 7.31 59.35 7.54Q59.29 7.77 59.23 8.02Q59.18 8.26 59.14 8.50Q59.11 8.75 59.11 8.96L59.11 8.96Q59.01 8.75 58.84 8.50Q58.67 8.26 58.44 8.04Q58.21 7.83 57.92 7.69Q57.62 7.55 57.27 7.55L57.27 7.55Q57.01 7.55 56.81 7.63Q56.60 7.71 56.46 7.85Q56.31 7.99 56.23 8.16Q56.15 8.32 56.15 8.47L56.15 8.47Q56.15 8.79 56.31 9.04Q56.46 9.28 56.71 9.45Q56.97 9.62 57.30 9.70Q57.62 9.79 57.97 9.79L57.97 9.79Q58.55 9.79 58.96 9.90Q59.37 10.01 59.63 10.19Q59.89 10.37 60.01 10.61Q60.13 10.84 60.13 11.06L60.13 11.06Q60.13 11.80 59.72 12.36Q59.30 12.91 58.71 13.27Q58.11 13.64 57.46 13.82Q56.81 14 56.34 14L56.34 14Q55.62 14 55.06 13.82Q54.50 13.64 54.28 13.44L54.28 13.44Q54.43 13.20 54.54 12.77Q54.66 12.33 54.70 11.76L54.70 11.76Q54.88 12.11 55.19 12.40Q55.50 12.68 55.87 12.88Q56.25 13.08 56.68 13.19Q57.11 13.30 57.55 13.30L57.55 13.30Q57.71 13.30 57.90 13.26Q58.10 13.22 58.27 13.12Q58.44 13.02 58.56 12.85Q58.67 12.68 58.67 12.42L58.67 12.42Q58.67 12.17 58.55 11.89Q58.42 11.62 58.18 11.39Q57.95 11.16 57.61 11.01Q57.27 10.86 56.85 10.86ZM74.77 6.93L74.77 6.93Q75.21 6.93 75.66 7.12Q76.10 7.31 76.45 7.67Q76.80 8.04 77.03 8.55Q77.25 9.07 77.25 9.72L77.25 9.72Q77.25 10.19 77.04 10.70Q76.82 11.20 76.44 11.68Q76.06 12.17 75.57 12.59Q75.08 13.01 74.54 13.33Q73.99 13.65 73.42 13.83Q72.86 14.01 72.34 14.01L72.34 14.01Q71.54 14.01 70.95 13.80Q70.35 13.59 70.07 13.36L70.07 13.36Q70.18 13.12 70.22 12.48Q70.25 11.84 70.25 10.97Q70.24 10.09 70.22 9.06Q70.20 8.02 70.20 6.97L70.20 6.97Q70.20 4.84 70.12 3.04Q70.04 1.23 69.93 0.01L69.93 0.01Q70.81 0.01 71.43-0.20Q72.04-0.42 72.51-0.74L72.51-0.74Q72.35-0.46 72.24-0.25Q72.13-0.03 72.06 0.15L72.06 0.15Q71.89 0.62 71.81 1.34Q71.72 2.07 71.68 2.97Q71.64 3.86 71.63 4.89Q71.62 5.91 71.62 6.97L71.62 6.97Q71.62 9.06 71.70 10.29Q71.78 11.52 71.81 12.12L71.81 12.12Q72.87 12.63 73.59 12.71Q74.31 12.78 74.76 12.56Q75.21 12.35 75.40 11.89Q75.60 11.44 75.60 10.85L75.60 10.85Q75.60 10.16 75.38 9.67Q75.17 9.17 74.82 8.84Q74.48 8.51 74.06 8.36Q73.64 8.20 73.23 8.20L73.23 8.20Q72.94 8.20 72.70 8.27Q72.45 8.33 72.25 8.40L72.25 8.40Q72.03 8.48 71.85 8.58L71.85 8.58Q72.35 8.12 72.87 7.76L72.87 7.76Q73.32 7.45 73.82 7.19Q74.33 6.93 74.77 6.93ZM82.89 7.06L82.89 7.06Q83.10 7.06 83.34 7.07Q83.58 7.08 83.73 7.15L83.73 7.15Q83.58 7.36 83.44 7.69Q83.30 8.01 83.19 8.30L83.19 8.30Q83.05 8.67 82.94 9.03L82.94 9.03Q82.84 8.97 82.68 8.92L82.68 8.92Q82.56 8.88 82.37 8.83Q82.18 8.79 81.91 8.79L81.91 8.79Q81.49 8.79 81.22 9.02Q80.95 9.25 80.78 9.63Q80.61 10.00 80.52 10.44Q80.43 10.89 80.39 11.31L80.39 11.31Q80.39 12.12 80.41 12.57Q80.43 13.02 80.43 13.30L80.43 13.30Q80.25 13.34 80.03 13.42Q79.81 13.50 79.59 13.60Q79.37 13.71 79.15 13.81Q78.93 13.92 78.76 14.01L78.76 14.01Q78.83 13.38 78.88 12.71Q78.93 12.04 78.95 11.40Q78.97 10.75 78.95 10.17Q78.93 9.59 78.87 9.15Q78.81 8.71 78.71 8.43Q78.61 8.16 78.47 8.13L78.47 8.13Q78.40 8.12 78.32 8.12Q78.23 8.12 78.15 8.12L78.15 8.12Q78.05 8.12 77.95 8.13L77.95 8.13Q78.33 8.01 78.71 7.84L78.71 7.84Q79.03 7.69 79.42 7.48Q79.81 7.28 80.18 7.01L80.18 7.01Q80.22 7.20 80.25 7.51Q80.28 7.83 80.30 8.22Q80.33 8.62 80.35 9.07Q80.36 9.52 80.39 9.95L80.39 9.95Q80.60 9.48 80.88 8.97Q81.16 8.46 81.48 8.03Q81.80 7.60 82.17 7.33Q82.53 7.06 82.89 7.06ZM86.69 5.24L86.69 5.24Q86.51 5.38 86.32 5.53L86.32 5.53Q86.17 5.67 85.98 5.85Q85.79 6.03 85.64 6.23L85.64 6.23Q85.48 5.98 85.32 5.80Q85.15 5.61 84.99 5.49L84.99 5.49Q84.83 5.33 84.66 5.24L84.66 5.24Q84.84 5.10 85.01 4.94L85.01 4.94Q85.16 4.80 85.33 4.62Q85.50 4.44 85.64 4.23L85.64 4.23Q85.79 4.47 85.97 4.65Q86.16 4.84 86.31 4.97L86.31 4.97Q86.49 5.12 86.69 5.24ZM84.43 8.12L84.43 8.12Q84.77 7.98 85.07 7.88Q85.37 7.77 85.64 7.65Q85.92 7.53 86.18 7.38Q86.44 7.24 86.69 7.01L86.69 7.01Q86.80 7.39 86.79 7.93Q86.77 8.47 86.72 9.06Q86.67 9.66 86.66 10.26Q86.65 10.86 86.77 11.35Q86.88 11.84 87.19 12.17Q87.49 12.50 88.09 12.56L88.09 12.56Q87.49 12.95 87.06 13.30Q86.63 13.65 86.21 14.01L86.21 14.01Q86.09 13.96 85.93 13.89Q85.78 13.82 85.64 13.69Q85.50 13.55 85.39 13.35Q85.29 13.15 85.27 12.82L85.27 12.82Q85.29 11.87 85.32 11.01Q85.34 10.15 85.29 9.50Q85.23 8.85 85.04 8.48Q84.85 8.11 84.43 8.12ZM87.29 3.33L87.29 3.33Q87.29 2.83 87.69 2.33Q88.09 1.83 88.71 1.39Q89.33 0.95 90.09 0.60Q90.85 0.25 91.55 0.04L91.55 0.04Q91.01 0.21 90.52 0.48Q90.03 0.74 89.66 1.06Q89.28 1.37 89.05 1.71Q88.82 2.06 88.82 2.38L88.82 2.38Q88.82 2.76 89.06 3.18Q89.31 3.60 89.69 4.03Q90.08 4.45 90.56 4.86Q91.04 5.26 91.53 5.61Q92.01 5.95 92.44 6.22Q92.86 6.50 93.16 6.64L93.16 6.64Q93.44 6.78 93.80 6.92Q94.16 7.07 94.55 7.26Q94.93 7.45 95.31 7.69Q95.69 7.94 95.98 8.27Q96.28 8.61 96.46 9.04Q96.64 9.48 96.64 10.05L96.64 10.05Q96.64 10.51 96.50 10.91Q96.36 11.30 96.12 11.63Q95.89 11.97 95.58 12.26Q95.28 12.54 94.95 12.81L94.95 12.81Q94.28 13.34 93.66 13.68Q93.04 14.01 92.39 14.01L92.39 14.01Q91.84 14.01 91.38 13.79Q90.92 13.57 90.59 13.21Q90.27 12.85 90.09 12.41Q89.91 11.97 89.91 11.54L89.91 11.54Q89.91 10.92 90.05 10.51Q90.19 10.09 90.42 9.81Q90.65 9.53 90.94 9.34Q91.24 9.14 91.55 8.96L91.55 8.96Q91.83 8.74 92.11 8.57Q92.40 8.40 92.74 8.29L92.74 8.29Q92.23 8.04 91.76 7.78Q91.28 7.52 90.92 7.24L90.92 7.24Q90.65 7.06 90.28 6.80Q89.91 6.55 89.51 6.25Q89.11 5.95 88.71 5.60Q88.31 5.25 88.00 4.88Q87.68 4.51 87.49 4.12Q87.29 3.72 87.29 3.33ZM95.07 10.91L95.07 10.91Q95.07 10.47 94.90 10.12Q94.72 9.76 94.43 9.46Q94.14 9.16 93.74 8.90Q93.35 8.65 92.92 8.43L92.92 8.43Q92.67 8.47 92.39 8.62Q92.12 8.76 91.90 9.00Q91.69 9.24 91.54 9.55Q91.39 9.87 91.39 10.25L91.39 10.25Q91.39 10.70 91.56 11.12Q91.73 11.55 92.05 11.89Q92.37 12.22 92.84 12.43Q93.31 12.63 93.93 12.63L93.93 12.63Q94.40 12.63 94.65 12.51Q94.89 12.39 94.98 12.17Q95.07 11.94 95.07 11.62Q95.07 11.30 95.07 10.91ZM104.22 9.52L104.22 9.52Q104.33 9.79 104.54 10.30Q104.75 10.82 104.98 11.35Q105.21 11.89 105.43 12.29Q105.66 12.70 105.81 12.73L105.81 12.73Q105.39 12.96 104.94 13.30Q104.48 13.64 104.15 14L104.15 14Q104.08 13.69 103.89 13.14Q103.71 12.59 103.40 11.93L103.40 11.93Q103.14 12.19 102.73 12.55Q102.33 12.91 101.86 13.23Q101.40 13.55 100.91 13.78Q100.41 14 99.96 14L99.96 14Q99.64 14 99.30 13.91Q98.95 13.82 98.67 13.64Q98.39 13.47 98.22 13.22Q98.04 12.96 98.04 12.64L98.04 12.64Q98.04 12.25 98.45 11.80Q98.85 11.35 99.46 10.91Q100.06 10.47 100.76 10.05Q101.46 9.63 102.05 9.27L102.05 9.27Q101.61 8.72 101.23 8.48Q100.84 8.23 100.38 8.23L100.38 8.23Q100.18 8.23 99.87 8.34Q99.55 8.46 99.26 8.60L99.26 8.60Q98.90 8.75 98.53 8.95L98.53 8.95Q99.32 8.41 100.04 7.98L100.04 7.98Q100.35 7.80 100.67 7.63Q101.00 7.46 101.30 7.32Q101.60 7.18 101.86 7.10Q102.12 7.01 102.30 7.01L102.30 7.01Q102.65 7.01 102.95 7.31Q103.25 7.62 103.50 8.03Q103.74 8.44 103.92 8.86Q104.09 9.28 104.22 9.52ZM101.47 12.64L101.47 12.64Q101.81 12.64 102.12 12.54Q102.42 12.45 102.66 12.26Q102.89 12.08 103.03 11.83Q103.17 11.58 103.17 11.28L103.17 11.28Q103.05 11.10 102.93 10.88Q102.80 10.67 102.69 10.47L102.69 10.47Q102.58 10.22 102.46 9.99Q102.34 9.76 102.21 9.60L102.21 9.60Q101.91 9.72 101.47 9.92Q101.02 10.12 100.62 10.39Q100.21 10.67 99.92 10.99Q99.64 11.31 99.64 11.66L99.64 11.66Q99.64 11.86 99.78 12.03Q99.93 12.21 100.18 12.34Q100.42 12.47 100.76 12.56Q101.09 12.64 101.47 12.64ZM107.45 6.99L107.45 6.99Q107.45 5.42 107.45 4.28Q107.45 3.14 107.44 2.32Q107.42 1.50 107.37 0.95Q107.31 0.41 107.21 0.01L107.21 0.01Q108.18 0.01 108.84-0.34Q109.51-0.70 110.07-1.18L110.07-1.18Q109.79-0.77 109.59-0.45Q109.40-0.13 109.33 0.10L109.33 0.10Q109.17 0.59 109.09 1.33Q109.00 2.07 108.96 2.98Q108.92 3.89 108.91 4.91Q108.91 5.94 108.91 6.99L108.91 6.99Q108.91 8.05 108.86 8.79Q108.82 9.52 108.80 10.04Q108.78 10.57 108.80 10.93Q108.82 11.28 108.95 11.59L108.95 11.59Q109.05 11.79 109.16 11.97Q109.27 12.15 109.42 12.31Q109.58 12.47 109.77 12.58Q109.97 12.68 110.24 12.70L110.24 12.70Q109.70 13.08 109.29 13.40Q108.88 13.72 108.54 14.04L108.54 14.04Q108.28 13.90 108.07 13.69Q107.86 13.47 107.71 13.23Q107.56 12.99 107.47 12.75Q107.38 12.52 107.35 12.33L107.35 12.33Q107.32 11.80 107.34 11.30Q107.35 10.79 107.38 10.19Q107.41 9.59 107.43 8.82Q107.45 8.05 107.45 6.99ZM122.61 10.86L122.61 10.86Q122.35 10.86 121.96 10.81Q121.58 10.75 121.22 10.58Q120.86 10.40 120.61 10.08Q120.36 9.76 120.36 9.23L120.36 9.23Q120.36 8.81 120.58 8.48Q120.79 8.15 121.13 7.90Q121.46 7.64 121.88 7.48Q122.30 7.31 122.70 7.20Q123.09 7.08 123.42 7.04Q123.75 6.99 123.91 6.99L123.91 6.99Q124.04 6.99 124.23 6.99Q124.42 7 124.61 7.02Q124.80 7.04 124.97 7.06Q125.15 7.08 125.23 7.13L125.23 7.13Q125.17 7.31 125.11 7.54Q125.05 7.77 124.99 8.02Q124.94 8.26 124.90 8.50Q124.87 8.75 124.87 8.96L124.87 8.96Q124.77 8.75 124.60 8.50Q124.43 8.26 124.20 8.04Q123.97 7.83 123.68 7.69Q123.38 7.55 123.03 7.55L123.03 7.55Q122.77 7.55 122.56 7.63Q122.36 7.71 122.21 7.85Q122.07 7.99 121.99 8.16Q121.91 8.32 121.91 8.47L121.91 8.47Q121.91 8.79 122.07 9.04Q122.22 9.28 122.47 9.45Q122.72 9.62 123.05 9.70Q123.38 9.79 123.73 9.79L123.73 9.79Q124.31 9.79 124.72 9.90Q125.13 10.01 125.39 10.19Q125.65 10.37 125.77 10.61Q125.89 10.84 125.89 11.06L125.89 11.06Q125.89 11.80 125.48 12.36Q125.06 12.91 124.47 13.27Q123.87 13.64 123.22 13.82Q122.57 14 122.09 14L122.09 14Q121.38 14 120.82 13.82Q120.26 13.64 120.04 13.44L120.04 13.44Q120.19 13.20 120.30 12.77Q120.41 12.33 120.46 11.76L120.46 11.76Q120.64 12.11 120.95 12.40Q121.25 12.68 121.63 12.88Q122.01 13.08 122.44 13.19Q122.86 13.30 123.31 13.30L123.31 13.30Q123.47 13.30 123.66 13.26Q123.86 13.22 124.03 13.12Q124.19 13.02 124.31 12.85Q124.43 12.68 124.43 12.42L124.43 12.42Q124.43 12.17 124.31 11.89Q124.18 11.62 123.94 11.39Q123.70 11.16 123.37 11.01Q123.03 10.86 122.61 10.86ZM131.18 7.53L131.18 7.53Q131.63 7.53 132.08 7.69Q132.52 7.84 132.88 8.16Q133.24 8.48 133.46 8.99Q133.69 9.49 133.69 10.18L133.69 10.18Q133.69 11.12 133.41 11.82Q133.13 12.52 132.80 12.99L132.80 12.99Q132.41 13.55 131.92 13.93L131.92 13.93Q132.08 13.71 132.22 13.36L132.22 13.36Q132.33 13.06 132.42 12.63Q132.51 12.19 132.51 11.58L132.51 11.58Q132.51 10.78 132.24 10.21Q131.96 9.63 131.54 9.26Q131.12 8.89 130.62 8.72Q130.12 8.55 129.65 8.55L129.65 8.55Q129.21 8.55 129.00 8.94Q128.80 9.32 128.73 9.97Q128.66 10.63 128.67 11.48Q128.69 12.33 128.69 13.27L128.69 13.27Q128.41 13.38 128.10 13.62Q127.79 13.85 127.51 14L127.51 14Q127.55 13.45 127.55 12.66Q127.55 11.86 127.55 10.93Q127.54 10.00 127.53 8.99Q127.51 7.98 127.51 7.01L127.51 7.01Q127.51 5.07 127.48 3.30Q127.46 1.54 127.29 0.06L127.29 0.06Q128.11 0.06 128.70-0.18Q129.28-0.41 129.72-0.69L129.72-0.69Q129.49-0.46 129.37-0.25Q129.26-0.04 129.21 0.13L129.21 0.13Q129.07 0.57 129.00 1.34Q128.93 2.10 128.89 3.04Q128.86 3.99 128.85 5.02Q128.84 6.05 128.84 7.01L128.84 7.01L128.84 8.55Q129.15 8.27 129.51 8.05L129.51 8.05Q129.84 7.85 130.26 7.69Q130.69 7.53 131.18 7.53ZM136.30 9.66L136.30 9.66Q136.30 10.08 136.47 10.59Q136.63 11.10 137.00 11.54Q137.38 11.98 137.99 12.29Q138.60 12.59 139.48 12.59L139.48 12.59Q139.94 12.59 140.21 12.46Q140.48 12.33 140.60 12.14Q140.73 11.96 140.76 11.75Q140.80 11.54 140.80 11.35L140.80 11.35Q140.80 10.75 140.57 10.16Q140.34 9.58 139.93 9.11Q139.52 8.65 138.97 8.37Q138.42 8.09 137.77 8.09L137.77 8.09Q137.35 8.09 137.07 8.25Q136.79 8.41 136.62 8.66Q136.44 8.90 136.37 9.18Q136.30 9.45 136.30 9.66ZM139.38 7L139.38 7Q139.80 7 140.29 7.18Q140.77 7.36 141.18 7.73Q141.60 8.09 141.86 8.66Q142.13 9.23 142.13 9.98L142.13 9.98Q142.13 10.42 141.93 10.88Q141.72 11.34 141.39 11.79Q141.06 12.24 140.64 12.63Q140.21 13.03 139.76 13.34Q139.30 13.64 138.84 13.82Q138.39 14 138.01 14L138.01 14Q137.44 14 136.91 13.76Q136.39 13.52 135.98 13.12Q135.58 12.71 135.33 12.19Q135.09 11.66 135.09 11.07L135.09 11.07Q135.09 10.28 135.52 9.54Q135.95 8.81 136.60 8.24Q137.24 7.67 137.99 7.34Q138.74 7 139.38 7ZM147.25 7.01L147.25 7.01Q147.70 6.99 148.22 7.17Q148.74 7.36 149.18 7.73Q149.62 8.11 149.91 8.64Q150.19 9.17 150.19 9.83L150.19 9.83Q150.19 10.58 149.78 11.27Q149.37 11.96 148.67 12.52Q147.98 13.08 147.09 13.47Q146.20 13.87 145.24 14.06L145.24 14.06Q145.24 14.07 145.21 14.62Q145.18 15.18 145.12 16.06Q145.07 16.94 145.01 18.07Q144.94 19.19 144.87 20.37L144.87 20.37Q144.72 23.13 144.52 26.61L144.52 26.61Q144.34 23.94 144.20 21.53L144.20 21.53Q144.14 20.51 144.09 19.43Q144.03 18.35 143.99 17.35Q143.95 16.34 143.92 15.47Q143.89 14.60 143.89 13.99L143.89 13.99L143.89 11.19Q143.89 10.35 143.82 9.82Q143.74 9.30 143.63 8.99Q143.51 8.68 143.39 8.53Q143.26 8.39 143.16 8.30L143.16 8.30Q143.04 8.19 142.86 8.15Q142.69 8.11 142.52 8.11L142.52 8.11Q142.32 8.11 142.13 8.16L142.13 8.16Q142.52 8.02 142.90 7.84L142.90 7.84Q143.22 7.69 143.57 7.48Q143.92 7.27 144.20 7.01L144.20 7.01Q144.77 7.01 145.01 7.67L145.01 7.67Q145.15 7.91 145.15 8.69L145.15 8.69Q145.36 8.51 145.63 8.29Q145.89 8.06 146.17 7.83Q146.45 7.60 146.73 7.38Q147.00 7.17 147.25 7.01ZM145.24 13.83L145.24 13.83Q145.84 13.71 146.44 13.43Q147.04 13.16 147.53 12.74Q148.01 12.32 148.31 11.75Q148.61 11.19 148.61 10.46L148.61 10.46Q148.61 9.91 148.32 9.52Q148.04 9.13 147.64 8.88Q147.24 8.62 146.82 8.50Q146.40 8.39 146.13 8.39L146.13 8.39Q145.82 8.39 145.59 8.58Q145.36 8.78 145.24 9.02L145.24 9.02Q145.26 9.44 145.27 9.97Q145.28 10.50 145.27 11.12Q145.26 11.73 145.25 12.42Q145.24 13.10 145.24 13.83Z"></path></g><defs data-v-fde0c5aa=""><linearGradient data-v-fde0c5aa="" gradientTransform="rotate(25)" id="23853e23-ae0a-4fd6-b26a-c2b7658a3384" x1="0%" y1="0%" x2="100%" y2="0%"><stop data-v-fde0c5aa="" offset="0%" stop-color="#693F24" stop-opacity="1"></stop><stop data-v-fde0c5aa="" offset="100%" stop-color="#9C9289" stop-opacity="1"></stop></linearGradient></defs><g data-v-fde0c5aa="" id="8d809a32-7977-45a9-8fe4-570107f33ced" stroke="none" fill="url(#23853e23-ae0a-4fd6-b26a-c2b7658a3384)" transform="matrix(3.930450734554834,0,0,3.930450734554834,102.79963576167687,70.22603324574747)"><path d="M15.195 9.362c-.363-.771-.618-1.32-.758-1.678l-5.246.066c-.136.394-.368.932-.694 1.673-1.288 2.924-3.666 8.322-3.602 13.281a.365.365 0 00.141.285c1.139.897 1.677.996 1.855.997.386-.005.734-.274 1.102-.558.136-.105.303-.232.42-.304a.429.429 0 01.451-.001c.115.071.281.195.394.28.374.281.721.543 1.09.538.369-.006.704-.275 1.059-.561.104-.084.26-.208.373-.284a.427.427 0 01.47-.006c.114.073.274.193.38.275.362.276.704.537 1.071.533.371-.005.711-.275 1.071-.561.118-.093.281-.221.394-.295a.422.422 0 01.451-.01 5.4 5.4 0 01.409.279c.395.289.75.548 1.122.543.192-.006.728-.118 1.843-1.044a.367.367 0 00.133-.289c-.064-4.958-2.579-10.293-3.929-13.159zm-7.873 11.77a.43.43 0 01-.835-.195L9.151 9.582a.428.428 0 11.835.195L7.322 21.132zm3.145-.126c.003.237-.192.457-.428.46-.236.003-.436-.161-.439-.397 0-.031.015-.157.021-.187l.985-11.218a.434.434 0 01.464-.39.429.429 0 01.39.464l-.993 11.268zm3.489.436a.43.43 0 01-.434-.423L12.23 9.729a.428.428 0 11.851-.097l1.285 11.26c.002.014.013.101.013.116a.429.429 0 01-.423.434zm3.225-.124a.43.43 0 01-.523-.306L13.704 9.73a.428.428 0 11.829-.217l2.954 11.282a.428.428 0 01-.306.523zM9.239 6.893l5.147-.066c.072-.31.192-.61.324-.921.261-.618.526-1.248.517-1.961-.016-1.274-.298-1.855-.33-1.918a.367.367 0 00-.333-.2c-.119.002-.223.019-.335.029L14.211.491a.43.43 0 00-.857.011l.02 1.51a3.905 3.905 0 00-.972.448l.033.082c.148.352.419.4.449.404a.436.436 0 01.374.471.426.426 0 01-.451.383 1.428 1.428 0 01-1.049-.701 1.43 1.43 0 01-1.019.726.428.428 0 11-.105-.851c.025-.005.295-.058.437-.42l.03-.078a3.9 3.9 0 00-.983-.423L10.098.49a.428.428 0 00-.857.013l.018 1.417c-.112-.007-.216-.022-.335-.021a.366.366 0 00-.328.209c-.031.063-.297.651-.28 1.926.008.714.291 1.337.564 1.941.145.321.279.627.359.918zm2.538-2.413a.266.266 0 01.26.253.266.266 0 01-.253.26.264.264 0 01-.259-.253.263.263 0 01.252-.26zm.015 1.188a.266.266 0 01.26.253.266.266 0 01-.253.26.264.264 0 01-.259-.253.263.263 0 01.252-.26z"></path></g><!----></svg>